# xmcd
#
# Track frame offsets: 
#        150
#        18462
#        34771
#        54778
#        71827
#        89761
#        108486
#        125489
#        143608
#        156833
#        179383
#
# Disc length: 2660 seconds
#
# Revision: 9
# Processed by: cddbd v1.5.2PL0 Copyright (c) Steve Scherf et al.
# Submitted via: ExactAudioCopy v1.0b6
#
DISCID=950a620b
DTITLE=George Harrison - The Dark Horse Years 1976 - 1992 [CD 3 - Some
DTITLE=where In England)
DYEAR=1981
DGENRE=Rock
TTITLE0=Blood From A Clone
TTITLE1=Unconsciousness Rules
TTITLE2=Life Itself
TTITLE3=All Those Years Ago
TTITLE4=Baltimore Oriole
TTITLE5=Teardrops
TTITLE6=That Which I Have Lost
TTITLE7=Writing's On The Wall
TTITLE8=Hong Kong Blues
TTITLE9=Save The World
TTITLE10=Save The World (Demo Version)
EXTD=
EXTT0=
EXTT1=
EXTT2=
EXTT3=
EXTT4=
EXTT5=
EXTT6=
EXTT7=
EXTT8=
EXTT9=
EXTT10=
PLAYORDER=
